# AST/ASF file generated using VICON BodyLanguage
# -----------------------------------------------
:version 1.10
:name VICON
:units
  mass 1.0
  length 0.45
  angle deg
:documentation
   .ast/.asf automatically generated from VICON data using
   VICON BodyBuilder and BodyLanguage model FoxedUp or BRILLIANT.MOD
:root
   order TX TY TZ RX RY RZ
   axis XYZ
   position 0 0 0  
   orientation 0 0 0 
:bonedata
  begin
     id 1 
     name lhipjoint
     direction 0.729592 -0.560644 0.39163 
     length 2.81907 
     axis 0 0 0  XYZ
  end
  begin
     id 2 
     name lfemur
     direction 0.34202 -0.939693 0  
     length 5.92797  
     axis 0 0 20  XYZ
    dof rx ry rz
    limits (-160.0 20.0)
           (-70.0 70.0)
           (-60.0 70.0)
  end
  begin
     id 3 
     name ltibia
     direction 0.34202 -0.939693 0   
     length 7.88118   
     axis 0 0 20   XYZ
    dof rx
    limits (-10.0 170.0)
  end
  begin
     id 4 
     name lfoot
     direction 0.0476411 -0.130893 0.990251   
     length 1.97348   
     axis -90 7.62852e-016 20   XYZ
    dof rx rz
    limits (-45.0 90.0)
           (-70.0 20.0)
  end
  begin
     id 5 
     name ltoes
     direction 1.53635e-011 -4.21786e-011 1   
     length 0.999366   
     axis -90 7.62852e-016 20   XYZ
    dof rx
    limits (-90.0 20.0)
  end
  begin
     id 6 
     name rhipjoint
     direction -0.702143 -0.583724 0.407752   
     length 2.70761  
     axis 0 0 0  XYZ 
  end
  begin
     id 7 
     name rfemur
     direction -0.34202 -0.939693 0   
     length 5.98021   
     axis 0 0 -20   XYZ
    dof rx ry rz
    limits (-160.0 20.0)
           (-70.0 70.0)
           (-70.0 60.0)
  end
  begin
     id 8 
     name rtibia
     direction -0.34202 -0.939693 0   
     length 7.66627   
     axis 0 0 -20   XYZ
    dof rx
    limits (-10.0 170.0)
 end
 begin
     id 9 
     name rfoot
     direction -0.0516088 -0.141794 0.98855   
     length 2.01387  
     axis -90 -7.62852e-016 -20   XYZ
    dof rx rz
    limits (-45.0 90.0)
           (-20.0 70.0)
  end
  begin
     id 10 
     name rtoes
     direction -1.53568e-011 -4.21939e-011 1   
     length 1.01862   
     axis -90 -7.62852e-016 -20   XYZ
    dof rx
    limits (-90.0 20.0)
  end
  begin
     id 11 
     name lowerback
     direction -0.0436953 0.98817 -0.147007   
     length 1.83615   
     axis 0 0 0   XYZ
    dof rx ry rz
    limits (-20.0 45.0)
           (-30.0 30.0)
           (-30.0 30.0)
  end
  begin
     id 12 
     name upperback
     direction 0.0239184 0.998197 0.0550483   
     length 1.80285   
     axis 0 0 0   XYZ
    dof rx ry rz
    limits (-20.0 45.0)
           (-30.0 30.0)
           (-30.0 30.0)
  end
  begin
     id 13 
     name thorax
     direction 0.0460768 0.990713 0.127927   
     length 1.87059   
     axis 0 0 0   XYZ
    dof rx ry rz
    limits (-20.0 45.0)
           (-30.0 30.0)
           (-30.0 30.0)
  end
  begin
     id 14 
     name lowerneck
     direction -0.0234223 0.997727 0.0631897   
     length 1.79511   
     axis 0 0 0   XYZ
    dof rx ry rz
    limits (-20.0 45.0)
           (-30.0 30.0)
           (-30.0 30.0)
  end
  begin
     id 15 
     name upperneck
     direction 0.0345303 0.984409 -0.172474   
     length 1.80359   
     axis 0 0 0   XYZ
    dof rx ry rz
    limits (-20.0 45.0)
           (-30.0 30.0)
           (-30.0 30.0)
  end
  begin
     id 16
     name head
     direction 0.00973222 0.9978 -0.0655778  
     length 1.81938  
     axis 0 0 0   XYZ
    dof rx ry rz
    limits (-20.0 45.0)
           (-30.0 30.0)
           (-30.0 30.0)
  end
  begin
     id 17 
     name lclavicle
     direction 0.971201 0.212597 -0.10757  
     length 3.74698  
     axis 0 0 0   XYZ
    dof ry rz
    limits (-20.0 10.0)
           (0.0 20.0)
  end
  begin
     id 18 
     name lhumerus
     direction 1 -4.4896e-011 1.42684e-027   
     length 4.83799   
     axis 180 -30 -90   XYZ
    dof rx ry rz
    limits (-60.0 90.0)
           (-90.0 90.0)
           (-90.0 90.0)
  end
  begin
     id 19
     name lradius
     direction 1 -4.48978e-011 1.53407e-026   
     length 2.68259   
     axis 180 -30 -90   XYZ
    dof rx
    limits (-10.0 170.0)
  end
  begin
     id 20
     name lwrist
     direction 1 -4.48982e-011 3.34345e-026   
     length 1.34129   
     axis -2.22354e-014 90 90   XYZ
    dof ry
    limits (-180.0 0.0)
 end
  begin
     id 21 
     name lhand
     direction 1 -4.48992e-011 6.6869e-026   
     length 0.724765   
     axis -4.26681e-014 90 90   XYZ
    dof rx rz
    limits (-90.0 90.0)
           (-45.0 45.0)
  end
  begin
     id 22 
     name lfingers
     direction 1 -4.48965e-011 1.33738e-025   
     length 0.584325   
     axis -8.53362e-014 90 90   XYZ
    dof rx
    limits (0.0 90.0)
  end
  begin
     id 23
     name lthumb
     direction 0.707107 -6.34915e-011 0.707107   
     length 0.838977   
     axis -90 45 2.85299e-015   XYZ
    dof rx rz
    limits (-45.0 45.0)
           (-45.0 45.0)
  end
  begin
     id 24 
     name rclavicle
     direction -0.987829 0.146084 -0.0534135   
     length 3.83678  
     axis 0 0 0   XYZ 
    dof ry rz
    limits (-10.0 20.0)
           (-20.0 0.0)
  end
  begin
     id 25 
     name rhumerus
     direction -1 -4.48963e-011 -3.4086e-018  
     length 4.61639   
     axis 180 30 90   XYZ
    dof rx ry rz
    limits (-90.0 60.0)
           (-90.0 90.0)
           (-90.0 90.0)
  end
  begin
     id 26 
     name rradius
     direction -1 -4.48983e-011 1.36226e-026   
     length 2.86915   
     axis 180 30 90   XYZ
    dof rx
    limits (-10.0 170.0)
  end
  begin
     id 27 
     name rwrist
     direction -1 -4.48927e-011 3.34345e-026   
     length 1.43458   
     axis -2.22354e-014 -90 -90   XYZ
    dof ry
    limits (-180.0 0.0)
  end
  begin
     id 28
     name rhand
     direction -1 -4.49071e-011 6.6869e-026   
     length 0.726007   
     axis -4.26681e-014 -90 -90   XYZ
    dof rx rz
    limits (-90.0 90.0)
           (-45.0 45.0)
  end
  begin
     id 29
     name rfingers
     direction -1 -4.48886e-011 1.33738e-025   
     length 0.585326   
     axis -8.53362e-014 -90 -90   XYZ
    dof rx
    limits (0.0 90.0)
  end
  begin
     id 30
     name rthumb
     direction -0.707107 -6.34932e-011 0.707107   
     length 0.840414   
     axis -90 -45 -2.85299e-015   XYZ
    dof rx rz
    limits (-45.0 45.0)
           (-45.0 45.0)
  end
:hierarchy
  begin
    root lhipjoint rhipjoint lowerback
    lhipjoint lfemur
    lfemur ltibia
    ltibia lfoot
    lfoot ltoes
    rhipjoint rfemur
    rfemur rtibia
    rtibia rfoot
    rfoot rtoes
    lowerback upperback
    upperback thorax
    thorax lowerneck lclavicle rclavicle
    lowerneck upperneck
    upperneck head
    lclavicle lhumerus
    lhumerus lradius
    lradius lwrist
    lwrist lhand lthumb
    lhand lfingers
    rclavicle rhumerus
    rhumerus rradius
    rradius rwrist
    rwrist rhand rthumb
    rhand rfingers
  end

#!OML:ASF F:\VICON\USERDATA\INSTALL\rory3\rory3.ASF
:FULLY-SPECIFIED
:DEGREES
240
root -1.50023 16.0019 0.0913528 2.36604 1.38752 6.63221
lowerback 11.4589 -0.49737 -10.0886
upperback -4.67919 -2.24914 0.584742
thorax -11.2381 -0.304905 6.81231
lowerneck -10.4637 -4.7886 -4.10972
upperneck 18.6029 -6.50659 3.2198
head 7.69481 -3.10357 1.09513
rclavicle -1.48592e-014 -4.37326e-015
rhumerus -44.7818 -2.10249 -84.3118
rradius 22.3293
rwrist 10.1365
rhand -7.73153 20.4834
rfingers 7.12502
rthumb 18.1671 -8.68815
lclavicle -1.48592e-014 -4.37326e-015
lhumerus -28.9945 -5.90407 92.1373
lradius 26.7009
lwrist 2.9707
lhand -9.4721 15.7061
lfingers 7.12502
lthumb 16.4919 45.0251
rfemur -34.5369 21.573 5.32425
rtibia 21.9213
rfoot -13.9213 -15.8006
rtoes 24.6584
lfemur 21.6687 -10.3232 -34.8121
ltibia -7.95139e-014
lfoot -10.5964 4.41158
ltoes 19.4017
241
root -1.52104 15.9795 0.245051 2.32038 1.61586 6.73017
lowerback 11.4284 -0.507364 -10.1366
upperback -4.66851 -2.27002 0.546632
thorax -11.2041 -0.315649 6.79946
lowerneck -10.3942 -4.84379 -4.14905
upperneck 18.4247 -6.57793 3.25375
head 7.62915 -3.13908 1.10828
rclavicle -1.16538e-014 -4.77083e-015
rhumerus -44.7963 -2.31901 -84.2602
rradius 22.0033
rwrist 10.4326
rhand -8.31707 21.4932
rfingers 7.12502
rthumb 17.6037 -7.72987
lclavicle -1.16538e-014 -4.77083e-015
lhumerus -29.0632 -5.43431 92.0524
lradius 26.6227
lwrist 2.38956
lhand -9.25606 15.6318
lfingers 7.12502
lthumb 16.6999 44.9334
rfemur -34.0756 21.1872 5.74065
rtibia 22.2385
rfoot -13.7645 -15.243
rtoes 28.3142
lfemur 22.2616 -10.1491 -34.7605
ltibia -5.40694e-014
lfoot -10.5861 3.92488
ltoes 17.7188
242
root -1.53964 15.9661 0.406519 2.21375 1.85474 6.78699
lowerback 11.3688 -0.526146 -10.1037
upperback -4.62556 -2.28472 0.502181
thorax -11.1182 -0.334142 6.73041
lowerneck -10.436 -4.88819 -4.15182
upperneck 18.4708 -6.64156 3.26738
head 7.65494 -3.16739 1.10522
rclavicle 1.21756e-015 9.93923e-015
rhumerus -44.856 -2.62576 -84.1396
rradius 21.7265
rwrist 10.8141
rhand -9.17833 22.9016
rfingers 7.12502
rthumb 16.7748 -6.3937
lclavicle 1.21756e-015 9.93923e-015
lhumerus -29.1199 -5.15172 91.9488
lradius 26.8543
lwrist 3.04612
lhand -8.21498 16.9375
lfingers 7.12502
lthumb 17.702 46.1517
rfemur -33.525 20.8251 6.21663
rtibia 22.629
rfoot -13.1374 -14.8147
rtoes 30.8106
lfemur 22.8979 -9.96524 -34.6927
ltibia -4.13472e-014
lfoot -10.5595 3.4265
ltoes 14.8614
243
root -1.55899 15.9614 0.570528 2.15158 2.03783 6.79084
lowerback 11.273 -0.560627 -10.0254
upperback -4.58505 -2.30746 0.473875
thorax -11.0122 -0.360184 6.65357
lowerneck -10.637 -4.92369 -4.23155
upperneck 18.6527 -6.69192 3.34969
head 7.75874 -3.18522 1.13342
rclavicle 9.64106e-015 1.59028e-015
rhumerus -44.891 -2.80761 -84.0994
rradius 21.5214
rwrist 11.2819
rhand -10.6183 24.7856
rfingers 7.12502
rthumb 15.3882 -4.62176
lclavicle 9.64106e-015 1.59028e-015
lhumerus -29.1263 -4.70797 91.7577
lradius 27.0961
lwrist 3.84451
lhand -6.91963 18.6494
lfingers 7.12502
lthumb 18.9481 47.7465
rfemur -33.1556 20.7005 6.61794
rtibia 23.1348
rfoot -12.3496 -14.6347
rtoes 32.9339
lfemur 23.4846 -9.74573 -34.5371
ltibia 4.45278e-014
lfoot -10.1453 2.89191
ltoes 13.2949
244
root -1.58188 15.9617 0.735292 2.07013 2.22855 6.74815
lowerback 11.2249 -0.590284 -9.92579
upperback -4.56993 -2.32551 0.466637
thorax -10.9645 -0.379868 6.58999
lowerneck -10.6019 -4.97717 -4.33605
upperneck 18.72 -6.75962 3.39448
head 7.78298 -3.22062 1.15827
rclavicle -1.81888e-014 -5.1684e-015
rhumerus -44.9711 -2.93409 -84.0697
rradius 21.3491
rwrist 11.5697
rhand -11.583 27.098
rfingers 7.12502
rthumb 14.4588 -2.37832
lclavicle -1.81888e-014 -5.1684e-015
lhumerus -29.2829 -4.4489 91.7181
lradius 26.8464
lwrist 3.45929
lhand -6.99384 18.291
lfingers 7.12502
lthumb 18.8767 47.3951
rfemur -32.8692 20.7338 6.96829
rtibia 23.6822
rfoot -11.4857 -14.7964
rtoes 34.847
lfemur 24.1243 -9.53826 -34.3063
ltibia 1.59028e-014
lfoot -9.6402 2.42127
ltoes 13.0739
245
root -1.60997 15.9645 0.893358 2.0152 2.44477 6.654
lowerback 11.3819 -0.608671 -9.89114
upperback -4.62666 -2.36019 0.526064
thorax -11.1152 -0.384702 6.65147
lowerneck -10.6139 -5.006 -4.42969
upperneck 18.7481 -6.77936 3.37836
head 7.79821 -3.23766 1.16558
rclavicle 4.64659e-015 1.90833e-014
rhumerus -45.1272 -2.9132 -84.0521
rradius 21.2236
rwrist 11.6411
rhand -12.0024 28.6209
rfingers 7.12502
rthumb 14.0546 -0.883892
lclavicle 4.64659e-015 1.90833e-014
lhumerus -29.5199 -4.23714 91.7742
lradius 26.2517
lwrist 2.36953
lhand -7.99967 16.6533
lfingers 7.12502
lthumb 17.9092 45.8486
rfemur -32.7388 20.8101 7.29579
rtibia 24.3277
rfoot -10.911 -15.1217
rtoes 36.7226
lfemur 24.6696 -9.37988 -33.9607
ltibia 1.90833e-014
lfoot -9.17799 1.89444
ltoes 13.5538
246
root -1.63877 15.9617 1.04845 2.0109 2.57846 6.50431
lowerback 11.4708 -0.608726 -9.80994
upperback -4.65674 -2.35149 0.599248
thorax -11.2032 -0.376478 6.68997
lowerneck -10.8269 -5.02606 -4.51199
upperneck 18.8311 -6.78974 3.39718
head 7.86815 -3.2429 1.17801
rclavicle 1.60022e-014 3.57812e-015
rhumerus -45.2425 -2.83442 -84.0827
rradius 21.2292
rwrist 11.5828
rhand -11.7929 27.6183
rfingers 7.12502
rthumb 14.2566 -1.87236
lclavicle 1.60022e-014 3.57812e-015
lhumerus -29.6997 -4.0543 91.7734
lradius 25.7948
lwrist 1.54491
lhand -8.31134 16.0875
lfingers 7.12502
lthumb 17.6092 45.31
rfemur -32.7124 20.6223 7.77022
rtibia 25.0835
rfoot -10.2017 -15.3077
rtoes 37.2627
lfemur 25.1764 -9.16243 -33.5261
ltibia 1.90833e-014
lfoot -8.69667 1.35425
ltoes 14.4645
247
root -1.66444 15.9554 1.21214 1.97862 2.61641 6.3064
lowerback 11.3804 -0.64147 -9.67216
upperback -4.69978 -2.35721 0.677741
thorax -11.1964 -0.38477 6.69729
lowerneck -10.5993 -5.01387 -4.45175
upperneck 18.6866 -6.76583 3.28717
head 7.77234 -3.24181 1.14157
rclavicle 4.00054e-015 -5.1684e-015
rhumerus -45.398 -2.67942 -84.1598
rradius 21.154
rwrist 11.5617
rhand -11.7464 27.5954
rfingers 7.12502
rthumb 14.3013 -1.89204
lclavicle 4.00054e-015 -5.1684e-015
lhumerus -30.1398 -3.75019 91.6946
lradius 25.715
lwrist 1.23588
lhand -7.86567 17.1065
lfingers 7.12502
lthumb 18.0381 46.29
rfemur -32.5433 20.1087 8.49355
rtibia 25.8635
rfoot -9.1003 -15.3533
rtoes 36.0916
lfemur 25.7925 -8.83031 -33.1042
ltibia -1.59028e-014
lfoot -8.17359 1.10944
ltoes 12.43
248
root -1.68603 15.9507 1.37509 1.99568 2.65254 6.06332
lowerback 11.3006 -0.690821 -9.42993
upperback -4.80108 -2.37239 0.763723
thorax -11.2624 -0.398567 6.65748
lowerneck -10.4197 -5.0041 -4.43068
upperneck 18.706 -6.74583 3.19263
head 7.74157 -3.24223 1.11371
rclavicle 2.40778e-014 -7.95139e-016
rhumerus -45.5779 -2.49067 -84.2403
rradius 20.9502
rwrist 11.528
rhand -12.8302 31.5528
rfingers 7.12502
rthumb 13.2569 1.99438
lclavicle 2.40778e-014 -7.95139e-016
lhumerus -30.5603 -2.89577 91.3892
lradius 25.877
lwrist 1.60554
lhand -6.8494 18.3673
lfingers 7.12502
lthumb 19.0157 47.4578
rfemur -32.3379 19.1578 9.38635
rtibia 26.6479
rfoot -7.95473 -14.9894
rtoes 34.897
lfemur 26.3466 -8.4938 -32.6762
ltibia 3.18055e-014
lfoot -7.1423 0.887127
ltoes 10.7008
249
root -1.70927 15.9465 1.53122 1.9757 2.6647 5.67903
lowerback 11.328 -0.686524 -9.05969
upperback -4.82493 -2.29726 0.892615
thorax -11.3217 -0.379935 6.57781
lowerneck -10.5148 -4.98863 -4.41786
upperneck 18.7151 -6.7098 3.12762
head 7.7574 -3.22875 1.09167
rclavicle 1.05853e-014 1.47101e-014
rhumerus -45.5516 -2.52135 -84.1508
rradius 20.6408
rwrist 11.7614
rhand -10.5264 25.772
rfingers 7.12502
rthumb 15.4767 -3.62845
lclavicle 1.05853e-014 1.47101e-014
lhumerus -30.7631 -2.24604 91.189
lradius 26.175
lwrist 2.32625
lhand -6.1293 18.8563
lfingers 7.12502
lthumb 19.7081 47.8773
rfemur -32.1204 18.2002 10.4277
rtibia 27.4419
rfoot -7.29801 -14.4425
rtoes 34.6987
lfemur 26.827 -8.14202 -32.0503
ltibia -3.18055e-015
lfoot -6.24125 0.728914
ltoes 8.5257
